<?xml version="1.0" encoding="UTF-8"?>
<svg id="Layer_2" data-name="Layer 2" xmlns="http://www.w3.org/2000/svg" viewBox="0 0 448 448">
  <defs>
    <style>
      .cls-1 {
        fill: #fff;
      }
    </style>
  </defs>
  <g id="Layer_1-2" data-name="Layer 1">
    <path class="cls-1" d="M400,0H48C21.49,0,0,21.49,0,48V400c0,26.51,21.49,48,48,48H185.25v-152.31h-63v-71.69h63v-54.64c0-62.15,37-96.48,93.67-96.48,27.14,0,55.52,4.84,55.52,4.84v61h-31.27c-30.81,0-40.42,19.12-40.42,38.73v46.55h68.78l-11,71.69h-57.78v152.31h137.25c26.51,0,48-21.49,48-48V48c0-26.51-21.49-48-48-48Z"/>
  </g>
</svg>